<svg xmlns="http://www.w3.org/2000/svg" width="36" height="36" viewBox="0 0 36 36">
  <defs>
    <mask id="key-mask"><rect width="36" height="36" fill="#fff"/><circle cx="28" cy="28" r="8" fill="#000"/></mask>
    <mask id="badge-mask"><circle cx="28" cy="28" r="6" fill="#fff"/><path d="m25 28 2 2 4-4" fill="none" stroke="#000" stroke-width="1.7" stroke-linecap="round" stroke-linejoin="round"/></mask>
  </defs>
  <g mask="url(#key-mask)" fill="none" stroke="#000" stroke-width="2.2" stroke-linejoin="round" stroke-linecap="round">
    <rect x="3" y="5" width="27" height="26" rx="6"/>
    <path d="M13 13h7v8h-7zM13 13h-3a3 3 0 1 1 3-3v3zm7 0v-3a3 3 0 1 1 3 3h-3zm0 8h3a3 3 0 1 1-3 3v-3zm-7 0v3a3 3 0 1 1-3-3h3z"/>
  </g>
  <circle cx="28" cy="28" r="6" fill="#000" mask="url(#badge-mask)"/>
</svg>
